<svg width="330" height="40" viewBox="0 0 330 40" fill="none" xmlns="http://www.w3.org/2000/svg">
<g clip-path="url(#clip0_604_17)">
<path d="M35.95 20V16.18L46.74 5.39L41.35 0L25.17 16.18V20V23.82L41.35 40L46.74 34.61L35.95 23.82V20Z" fill="#16F2D2"/>
<path d="M5.39 0L0 5.39L10.79 16.18V20V23.82L0 34.61L5.39 40L21.57 23.82V20V16.18L5.39 0Z" fill="#1351FC"/>
<path d="M60.7286 9.46828H64.1193V18.1043H74.61V9.46828H78.0007V30.16H74.61V21.0023H64.1193V30.16H60.7286V9.46828ZM82.0674 9.46828H90.6455C95.63 9.46828 98.1513 11.5838 98.1513 15.8149C98.1513 20.075 95.63 22.2195 90.5875 22.2195H85.4581V30.16H82.0674V9.46828ZM85.4581 12.3663V19.3215H90.3847C91.8916 19.3215 92.9929 19.0317 93.6884 18.51C94.3839 17.9594 94.7317 17.061 94.7317 15.8149C94.7317 14.5688 94.3549 13.6994 93.6594 13.1777C92.9639 12.6271 91.8626 12.3663 90.3847 12.3663H85.4581ZM107.839 14.7716C108.563 14.7716 109.201 14.8875 109.722 15.1484V18.4521C108.969 18.2202 108.273 18.1333 107.578 18.1333C106.708 18.1333 105.926 18.4521 105.23 19.1476C104.419 19.9301 104.042 20.9444 104.042 22.2195V30.16H100.767V15.1773H104.042V17.3219C104.448 16.5684 104.912 15.9888 105.462 15.5831C106.129 15.0324 106.911 14.7716 107.839 14.7716ZM118.562 14.7716C120.822 14.7716 122.648 15.4961 124.039 17.0031C125.401 18.4811 126.097 20.3648 126.097 22.6832C126.097 24.9726 125.401 26.8563 124.068 28.3053C122.677 29.8122 120.822 30.5657 118.562 30.5657C116.272 30.5657 114.447 29.8122 113.056 28.3053C111.694 26.8563 111.027 24.9726 111.027 22.6832C111.027 20.3648 111.694 18.4811 113.085 17.0031C114.447 15.4961 116.272 14.7716 118.562 14.7716ZM118.562 17.4668C117.171 17.4668 116.128 17.9884 115.374 19.0896C114.736 20.017 114.418 21.2342 114.418 22.6832C114.418 24.1322 114.736 25.3203 115.374 26.2477C116.128 27.32 117.171 27.8706 118.562 27.8706C119.924 27.8706 120.996 27.32 121.75 26.2477C122.387 25.2914 122.735 24.1032 122.735 22.6832C122.735 21.2342 122.387 20.017 121.75 19.0896C120.996 17.9884 119.924 17.4668 118.562 17.4668ZM147.907 9.06256C150.342 9.06256 152.37 9.70012 153.935 10.9752C155.442 12.1924 156.341 13.8732 156.659 15.9598H153.356C153.008 14.5977 152.37 13.6124 151.414 12.9749C150.487 12.3373 149.299 12.0475 147.85 12.0475C145.676 12.0475 144.053 12.772 142.952 14.279C141.938 15.612 141.445 17.4668 141.445 19.8431C141.445 22.2774 141.938 24.1611 142.923 25.4652C143.995 26.8563 145.676 27.5808 147.936 27.5808C149.414 27.5808 150.632 27.204 151.559 26.5085C152.544 25.7261 153.24 24.5379 153.646 22.973H156.949C156.486 25.4073 155.413 27.291 153.703 28.653C152.11 29.9282 150.197 30.5657 147.965 30.5657C144.517 30.5657 141.938 29.4645 140.257 27.32C138.779 25.4652 138.054 22.973 138.054 19.8431C138.054 16.7712 138.808 14.25 140.344 12.3373C142.082 10.1348 144.604 9.06256 147.907 9.06256ZM160.149 9.46828H163.511V27.262H174.697V30.16H160.149V9.46828ZM177.3 9.46828H180.69V30.16H177.3V9.46828ZM184.743 9.46828H199.667V12.3663H188.133V18.1043H198.972V21.0023H188.133V27.262H200.16V30.16H184.743V9.46828ZM203.336 9.46828H206.727L216.957 24.393H217.073V9.46828H220.492V30.16H217.189L206.843 15.0324H206.727V30.16H203.336V9.46828ZM222.968 9.46828H239.921V12.3663H233.14V30.16H229.749V12.3663H222.968V9.46828Z" fill="#323333"/>
</g>
<defs>
<clipPath id="clip0_604_17">
<rect width="330" height="40" fill="white"/>
</clipPath>
</defs>
</svg>
